<mxfile host="Electron" modified="2024-06-04T14:45:35.531Z" agent="Mozilla/5.0 (Macintosh; Intel Mac OS X 10_15_7) AppleWebKit/537.36 (KHTML, like Gecko) draw.io/24.0.4 Chrome/120.0.6099.109 Electron/28.1.0 Safari/537.36" etag="ZOF05foPskqZAWCkrYTu" version="24.0.4" type="device">
  <diagram name="第 1 页" id="E24quEV0emkUoUm_CPGB">
    <mxGraphModel dx="739" dy="1113" grid="1" gridSize="10" guides="1" tooltips="1" connect="1" arrows="1" fold="1" page="1" pageScale="1" pageWidth="1169" pageHeight="827" math="0" shadow="0">
      <root>
        <mxCell id="0" />
        <mxCell id="1" parent="0" />
        <mxCell id="BEFqI1c1g75-3pL4uiZb-6" value="" style="edgeStyle=orthogonalEdgeStyle;rounded=0;orthogonalLoop=1;jettySize=auto;html=1;" edge="1" parent="1" source="BEFqI1c1g75-3pL4uiZb-2" target="BEFqI1c1g75-3pL4uiZb-5">
          <mxGeometry relative="1" as="geometry" />
        </mxCell>
        <mxCell id="BEFqI1c1g75-3pL4uiZb-2" value="Initialise Population&lt;br&gt;初始化 种群" style="rounded=0;whiteSpace=wrap;html=1;" vertex="1" parent="1">
          <mxGeometry x="285" y="66" width="150" height="50" as="geometry" />
        </mxCell>
        <mxCell id="BEFqI1c1g75-3pL4uiZb-8" value="" style="edgeStyle=orthogonalEdgeStyle;rounded=0;orthogonalLoop=1;jettySize=auto;html=1;" edge="1" parent="1" source="BEFqI1c1g75-3pL4uiZb-5" target="BEFqI1c1g75-3pL4uiZb-7">
          <mxGeometry relative="1" as="geometry" />
        </mxCell>
        <mxCell id="BEFqI1c1g75-3pL4uiZb-5" value="Initialise Loop Counter (&lt;font color=&quot;#b81900&quot;&gt;k = 0&lt;/font&gt;)&lt;br&gt;初始化 代数循环计数器" style="whiteSpace=wrap;html=1;rounded=0;" vertex="1" parent="1">
          <mxGeometry x="262.5" y="156" width="195" height="45" as="geometry" />
        </mxCell>
        <mxCell id="BEFqI1c1g75-3pL4uiZb-13" value="" style="edgeStyle=orthogonalEdgeStyle;rounded=0;orthogonalLoop=1;jettySize=auto;html=1;fillColor=#008a00;strokeColor=#005700;" edge="1" parent="1" source="BEFqI1c1g75-3pL4uiZb-7" target="BEFqI1c1g75-3pL4uiZb-12">
          <mxGeometry relative="1" as="geometry" />
        </mxCell>
        <mxCell id="BEFqI1c1g75-3pL4uiZb-42" value="" style="edgeStyle=orthogonalEdgeStyle;rounded=0;orthogonalLoop=1;jettySize=auto;html=1;fillColor=#e51400;strokeColor=#B20000;" edge="1" parent="1" source="BEFqI1c1g75-3pL4uiZb-7" target="BEFqI1c1g75-3pL4uiZb-41">
          <mxGeometry relative="1" as="geometry" />
        </mxCell>
        <mxCell id="BEFqI1c1g75-3pL4uiZb-7" value="(&lt;font color=&quot;#b81900&quot;&gt;k&lt;/font&gt; != maximum generation)" style="rhombus;whiteSpace=wrap;html=1;rounded=0;" vertex="1" parent="1">
          <mxGeometry x="258.75" y="236" width="202.5" height="60" as="geometry" />
        </mxCell>
        <mxCell id="BEFqI1c1g75-3pL4uiZb-10" value="" style="strokeWidth=2;html=1;shape=mxgraph.flowchart.annotation_2;align=left;labelPosition=right;pointerEvents=1;rotation=-180;" vertex="1" parent="1">
          <mxGeometry x="435" y="41" width="50" height="100" as="geometry" />
        </mxCell>
        <mxCell id="BEFqI1c1g75-3pL4uiZb-11" value="Initialise Individual&lt;div&gt;by&lt;/div&gt;&lt;div&gt;&lt;font color=&quot;#b81900&quot;&gt;CLK (Tour Component)&lt;/font&gt;&lt;/div&gt;&lt;div&gt;&lt;font color=&quot;#b81900&quot;&gt;Empty Bag (Knapsack Component)&lt;/font&gt;&lt;/div&gt;" style="text;html=1;align=center;verticalAlign=middle;resizable=0;points=[];autosize=1;strokeColor=#d6b656;fillColor=#fff2cc;" vertex="1" parent="1">
          <mxGeometry x="485" y="56" width="210" height="70" as="geometry" />
        </mxCell>
        <mxCell id="BEFqI1c1g75-3pL4uiZb-15" value="" style="edgeStyle=orthogonalEdgeStyle;rounded=0;orthogonalLoop=1;jettySize=auto;html=1;" edge="1" parent="1" source="BEFqI1c1g75-3pL4uiZb-12" target="BEFqI1c1g75-3pL4uiZb-14">
          <mxGeometry relative="1" as="geometry" />
        </mxCell>
        <mxCell id="BEFqI1c1g75-3pL4uiZb-12" value="Select Parents&lt;br&gt;选择 父代群体" style="whiteSpace=wrap;html=1;rounded=0;" vertex="1" parent="1">
          <mxGeometry x="297.5" y="326" width="125" height="40" as="geometry" />
        </mxCell>
        <mxCell id="BEFqI1c1g75-3pL4uiZb-17" value="" style="edgeStyle=orthogonalEdgeStyle;rounded=0;orthogonalLoop=1;jettySize=auto;html=1;" edge="1" parent="1" source="BEFqI1c1g75-3pL4uiZb-14" target="BEFqI1c1g75-3pL4uiZb-16">
          <mxGeometry relative="1" as="geometry" />
        </mxCell>
        <mxCell id="BEFqI1c1g75-3pL4uiZb-14" value="Crossover&lt;br&gt;交叉" style="whiteSpace=wrap;html=1;rounded=0;" vertex="1" parent="1">
          <mxGeometry x="302.5" y="396" width="115" height="40" as="geometry" />
        </mxCell>
        <mxCell id="BEFqI1c1g75-3pL4uiZb-19" value="" style="edgeStyle=orthogonalEdgeStyle;rounded=0;orthogonalLoop=1;jettySize=auto;html=1;" edge="1" parent="1" source="BEFqI1c1g75-3pL4uiZb-16" target="BEFqI1c1g75-3pL4uiZb-18">
          <mxGeometry relative="1" as="geometry" />
        </mxCell>
        <mxCell id="BEFqI1c1g75-3pL4uiZb-16" value="Evaluate New Individuals&lt;br&gt;评估 新个体" style="whiteSpace=wrap;html=1;rounded=0;" vertex="1" parent="1">
          <mxGeometry x="280.63" y="466" width="158.75" height="40" as="geometry" />
        </mxCell>
        <mxCell id="BEFqI1c1g75-3pL4uiZb-26" style="edgeStyle=orthogonalEdgeStyle;rounded=0;orthogonalLoop=1;jettySize=auto;html=1;entryX=0.5;entryY=0;entryDx=0;entryDy=0;" edge="1" parent="1" source="BEFqI1c1g75-3pL4uiZb-18" target="BEFqI1c1g75-3pL4uiZb-25">
          <mxGeometry relative="1" as="geometry" />
        </mxCell>
        <mxCell id="BEFqI1c1g75-3pL4uiZb-18" value="Merge Parents &amp;amp; Offspring&lt;br&gt;合并 父代和子代" style="whiteSpace=wrap;html=1;rounded=0;" vertex="1" parent="1">
          <mxGeometry x="277.51" y="536" width="164.99" height="40" as="geometry" />
        </mxCell>
        <mxCell id="BEFqI1c1g75-3pL4uiZb-20" value="" style="strokeWidth=2;html=1;shape=mxgraph.flowchart.annotation_2;align=left;labelPosition=right;pointerEvents=1;rotation=-180;" vertex="1" parent="1">
          <mxGeometry x="435" y="311" width="50" height="70" as="geometry" />
        </mxCell>
        <mxCell id="BEFqI1c1g75-3pL4uiZb-21" value="&lt;font color=&quot;#b81900&quot;&gt;Elitism&lt;/font&gt; 精英模式&amp;nbsp;&lt;div&gt;It ensures&lt;span style=&quot;background-color: initial;&quot;&gt;&amp;nbsp;some Best Individuals are Selected&lt;/span&gt;&lt;/div&gt;" style="text;html=1;align=center;verticalAlign=middle;resizable=0;points=[];autosize=1;strokeColor=#d6b656;fillColor=#fff2cc;" vertex="1" parent="1">
          <mxGeometry x="485" y="326" width="270" height="40" as="geometry" />
        </mxCell>
        <mxCell id="BEFqI1c1g75-3pL4uiZb-22" value="" style="endArrow=oval;html=1;rounded=0;entryX=1;entryY=0.5;entryDx=0;entryDy=0;exitX=0.296;exitY=0.979;exitDx=0;exitDy=0;exitPerimeter=0;startArrow=oval;startFill=1;endFill=1;strokeColor=#005700;fillColor=#008a00;" edge="1" parent="1" source="BEFqI1c1g75-3pL4uiZb-21" target="BEFqI1c1g75-3pL4uiZb-14">
          <mxGeometry width="50" height="50" relative="1" as="geometry">
            <mxPoint x="525" y="366" as="sourcePoint" />
            <mxPoint x="565" y="326" as="targetPoint" />
            <Array as="points">
              <mxPoint x="565" y="416" />
            </Array>
          </mxGeometry>
        </mxCell>
        <mxCell id="BEFqI1c1g75-3pL4uiZb-24" value="&amp;nbsp;Elites Participate&lt;br&gt;精英群体参与交叉" style="text;html=1;align=center;verticalAlign=middle;resizable=0;points=[];autosize=1;fillColor=#6d8764;glass=0;rounded=1;shadow=0;textShadow=0;opacity=60;strokeColor=#3A5431;fontColor=#ffffff;" vertex="1" parent="1">
          <mxGeometry x="435" y="396" width="120" height="40" as="geometry" />
        </mxCell>
        <mxCell id="BEFqI1c1g75-3pL4uiZb-30" value="" style="edgeStyle=orthogonalEdgeStyle;rounded=0;orthogonalLoop=1;jettySize=auto;html=1;" edge="1" parent="1" source="BEFqI1c1g75-3pL4uiZb-25" target="BEFqI1c1g75-3pL4uiZb-29">
          <mxGeometry relative="1" as="geometry" />
        </mxCell>
        <mxCell id="BEFqI1c1g75-3pL4uiZb-25" value="Select (Update) Population&lt;br&gt;选择(更新) 种群" style="whiteSpace=wrap;html=1;rounded=0;" vertex="1" parent="1">
          <mxGeometry x="274.7" y="606" width="170.61" height="40" as="geometry" />
        </mxCell>
        <mxCell id="BEFqI1c1g75-3pL4uiZb-28" value="Yes" style="text;html=1;align=center;verticalAlign=middle;resizable=0;points=[];autosize=1;strokeColor=#82b366;fillColor=#d5e8d4;" vertex="1" parent="1">
          <mxGeometry x="315" y="281" width="40" height="30" as="geometry" />
        </mxCell>
        <mxCell id="BEFqI1c1g75-3pL4uiZb-32" value="" style="edgeStyle=orthogonalEdgeStyle;rounded=0;orthogonalLoop=1;jettySize=auto;html=1;" edge="1" parent="1" source="BEFqI1c1g75-3pL4uiZb-29" target="BEFqI1c1g75-3pL4uiZb-31">
          <mxGeometry relative="1" as="geometry" />
        </mxCell>
        <mxCell id="BEFqI1c1g75-3pL4uiZb-29" value="Mutate&lt;br&gt;变异" style="whiteSpace=wrap;html=1;rounded=0;" vertex="1" parent="1">
          <mxGeometry x="322.5" y="676" width="75" height="40" as="geometry" />
        </mxCell>
        <mxCell id="BEFqI1c1g75-3pL4uiZb-36" value="" style="edgeStyle=orthogonalEdgeStyle;rounded=0;orthogonalLoop=1;jettySize=auto;html=1;" edge="1" parent="1" source="BEFqI1c1g75-3pL4uiZb-31" target="BEFqI1c1g75-3pL4uiZb-35">
          <mxGeometry relative="1" as="geometry" />
        </mxCell>
        <mxCell id="BEFqI1c1g75-3pL4uiZb-31" value="Evaluate Mutant Individuals&lt;br&gt;再次评估 变异个体" style="whiteSpace=wrap;html=1;rounded=0;" vertex="1" parent="1">
          <mxGeometry x="272.5" y="746" width="175" height="40" as="geometry" />
        </mxCell>
        <mxCell id="BEFqI1c1g75-3pL4uiZb-37" style="edgeStyle=orthogonalEdgeStyle;rounded=0;orthogonalLoop=1;jettySize=auto;html=1;entryX=0;entryY=0.5;entryDx=0;entryDy=0;exitX=0.5;exitY=0;exitDx=0;exitDy=0;" edge="1" parent="1" source="BEFqI1c1g75-3pL4uiZb-35" target="BEFqI1c1g75-3pL4uiZb-7">
          <mxGeometry relative="1" as="geometry" />
        </mxCell>
        <mxCell id="BEFqI1c1g75-3pL4uiZb-35" value="&lt;font color=&quot;#b81900&quot;&gt;k += 1&lt;/font&gt;" style="whiteSpace=wrap;html=1;rounded=0;" vertex="1" parent="1">
          <mxGeometry x="155" y="471" width="80" height="30" as="geometry" />
        </mxCell>
        <mxCell id="BEFqI1c1g75-3pL4uiZb-38" value="Loop Counter Increases&lt;div&gt;代数循环计数器自增&lt;/div&gt;" style="text;html=1;align=center;verticalAlign=middle;resizable=0;points=[];autosize=1;strokeColor=#d6b656;fillColor=#fff2cc;" vertex="1" parent="1">
          <mxGeometry x="120" y="526" width="150" height="40" as="geometry" />
        </mxCell>
        <mxCell id="BEFqI1c1g75-3pL4uiZb-39" value="" style="endArrow=oval;html=1;rounded=0;entryX=1;entryY=0.5;entryDx=0;entryDy=0;exitX=0.892;exitY=0.962;exitDx=0;exitDy=0;exitPerimeter=0;startArrow=oval;startFill=1;endFill=1;strokeColor=#B20000;fillColor=#e51400;" edge="1" parent="1" source="BEFqI1c1g75-3pL4uiZb-21" target="BEFqI1c1g75-3pL4uiZb-29">
          <mxGeometry width="50" height="50" relative="1" as="geometry">
            <mxPoint x="575" y="375" as="sourcePoint" />
            <mxPoint x="428" y="426" as="targetPoint" />
            <Array as="points">
              <mxPoint x="725" y="696" />
            </Array>
          </mxGeometry>
        </mxCell>
        <mxCell id="BEFqI1c1g75-3pL4uiZb-40" value="&amp;nbsp;Elites Skip Mutation (Avoiding to ruin Good Solution)&lt;div&gt;精英群体并不参与变异，防止破坏当前优质解&lt;/div&gt;" style="text;html=1;align=center;verticalAlign=middle;resizable=0;points=[];autosize=1;fillColor=#e51400;glass=0;rounded=1;shadow=0;textShadow=0;opacity=60;strokeColor=#B20000;fontColor=#ffffff;" vertex="1" parent="1">
          <mxGeometry x="405" y="676" width="310" height="40" as="geometry" />
        </mxCell>
        <mxCell id="BEFqI1c1g75-3pL4uiZb-41" value="Return Best Individual" style="whiteSpace=wrap;html=1;rounded=0;" vertex="1" parent="1">
          <mxGeometry x="515" y="251" width="147.5" height="30" as="geometry" />
        </mxCell>
        <mxCell id="BEFqI1c1g75-3pL4uiZb-43" value="No" style="text;html=1;align=center;verticalAlign=middle;resizable=0;points=[];autosize=1;strokeColor=#b85450;fillColor=#f8cecc;" vertex="1" parent="1">
          <mxGeometry x="442.5" y="251" width="40" height="30" as="geometry" />
        </mxCell>
        <mxCell id="BEFqI1c1g75-3pL4uiZb-46" value="Produces Offspring" style="text;html=1;align=center;verticalAlign=middle;resizable=0;points=[];autosize=1;strokeColor=#d6b656;fillColor=#fff2cc;" vertex="1" parent="1">
          <mxGeometry x="585" y="401" width="130" height="30" as="geometry" />
        </mxCell>
        <mxCell id="BEFqI1c1g75-3pL4uiZb-45" value="" style="endArrow=oval;html=1;rounded=0;startArrow=oval;startFill=1;endFill=1;strokeColor=#d6b656;fillColor=#fff2cc;entryX=0.75;entryY=1;entryDx=0;entryDy=0;exitX=0.535;exitY=0.975;exitDx=0;exitDy=0;exitPerimeter=0;" edge="1" parent="1" source="BEFqI1c1g75-3pL4uiZb-46">
          <mxGeometry width="50" height="50" relative="1" as="geometry">
            <mxPoint x="645.97" y="431" as="sourcePoint" />
            <mxPoint x="388.75" y="436.57000000000005" as="targetPoint" />
            <Array as="points">
              <mxPoint x="655" y="446" />
              <mxPoint x="515" y="446.57000000000005" />
              <mxPoint x="389" y="446.57000000000005" />
            </Array>
          </mxGeometry>
        </mxCell>
        <mxCell id="BEFqI1c1g75-3pL4uiZb-47" value="&lt;font color=&quot;#b81900&quot;&gt;Elitism&lt;/font&gt;" style="text;html=1;align=center;verticalAlign=middle;resizable=0;points=[];autosize=1;strokeColor=#d6b656;fillColor=#fff2cc;" vertex="1" parent="1">
          <mxGeometry x="475" y="611" width="60" height="30" as="geometry" />
        </mxCell>
        <mxCell id="BEFqI1c1g75-3pL4uiZb-48" value="" style="endArrow=oval;html=1;rounded=0;startArrow=oval;startFill=1;endFill=1;strokeColor=#d6b656;fillColor=#fff2cc;entryX=1;entryY=0.5;entryDx=0;entryDy=0;exitX=0;exitY=0.5;exitDx=0;exitDy=0;exitPerimeter=0;" edge="1" parent="1" source="BEFqI1c1g75-3pL4uiZb-47" target="BEFqI1c1g75-3pL4uiZb-25">
          <mxGeometry width="50" height="50" relative="1" as="geometry">
            <mxPoint x="465" y="636" as="sourcePoint" />
            <mxPoint x="399" y="446" as="targetPoint" />
            <Array as="points" />
          </mxGeometry>
        </mxCell>
        <mxCell id="BEFqI1c1g75-3pL4uiZb-50" value="Order Crossover (Tour Component)&lt;br&gt;N-point Crossover (Knapsack Component)" style="text;html=1;align=center;verticalAlign=middle;resizable=0;points=[];autosize=1;strokeColor=#d6b656;fillColor=#fff2cc;" vertex="1" parent="1">
          <mxGeometry x="455" y="466" width="250" height="40" as="geometry" />
        </mxCell>
        <mxCell id="BEFqI1c1g75-3pL4uiZb-51" style="edgeStyle=orthogonalEdgeStyle;rounded=0;orthogonalLoop=1;jettySize=auto;html=1;startArrow=oval;startFill=1;endArrow=none;endFill=0;fillColor=#fff2cc;strokeColor=#d6b656;" edge="1" parent="1" source="BEFqI1c1g75-3pL4uiZb-50">
          <mxGeometry relative="1" as="geometry">
            <mxPoint x="580" y="446" as="targetPoint" />
            <Array as="points">
              <mxPoint x="580" y="466" />
              <mxPoint x="580" y="466" />
            </Array>
          </mxGeometry>
        </mxCell>
        <mxCell id="BEFqI1c1g75-3pL4uiZb-52" value="2-opt Mutation (Tour Component)&lt;br&gt;&lt;span style=&quot;background-color: rgb(255, 153, 153);&quot;&gt;Prob = 35%&lt;br&gt;&lt;/span&gt;Bit Flip Mutation (Knapsack Component)&lt;div&gt;&lt;span style=&quot;background-color: rgb(255, 153, 153);&quot;&gt;Prob = 82.5%&lt;/span&gt;&lt;/div&gt;" style="text;html=1;align=center;verticalAlign=middle;resizable=0;points=[];autosize=1;strokeColor=#d6b656;fillColor=#fff2cc;" vertex="1" parent="1">
          <mxGeometry x="460" y="526" width="240" height="70" as="geometry" />
        </mxCell>
        <mxCell id="BEFqI1c1g75-3pL4uiZb-53" style="edgeStyle=orthogonalEdgeStyle;rounded=0;orthogonalLoop=1;jettySize=auto;html=1;entryX=0.75;entryY=0;entryDx=0;entryDy=0;fillColor=#fff2cc;strokeColor=#d6b656;startArrow=oval;startFill=1;endArrow=oval;endFill=1;" edge="1" parent="1" target="BEFqI1c1g75-3pL4uiZb-29">
          <mxGeometry relative="1" as="geometry">
            <mxPoint x="585" y="596" as="sourcePoint" />
            <Array as="points">
              <mxPoint x="585" y="597" />
              <mxPoint x="585" y="666" />
              <mxPoint x="379" y="666" />
            </Array>
          </mxGeometry>
        </mxCell>
        <mxCell id="BEFqI1c1g75-3pL4uiZb-57" value="✅" style="text;html=1;align=center;verticalAlign=middle;resizable=0;points=[];autosize=1;strokeColor=none;fillColor=none;" vertex="1" parent="1">
          <mxGeometry x="545" y="366" width="40" height="30" as="geometry" />
        </mxCell>
        <mxCell id="BEFqI1c1g75-3pL4uiZb-59" value="❌" style="text;html=1;align=center;verticalAlign=middle;resizable=0;points=[];autosize=1;strokeColor=none;fillColor=none;" vertex="1" parent="1">
          <mxGeometry x="705" y="366" width="40" height="30" as="geometry" />
        </mxCell>
      </root>
    </mxGraphModel>
  </diagram>
</mxfile>
